<?xml version="1.0" standalone="no"?>
<!DOCTYPE svg PUBLIC "-//W3C//DTD SVG 20010904//EN"
 "http://www.w3.org/TR/2001/REC-SVG-20010904/DTD/svg10.dtd">
<svg version="1.0" xmlns="http://www.w3.org/2000/svg"
 width="16.000000pt" height="16.000000pt" viewBox="0 0 16.000000 16.000000"
 preserveAspectRatio="xMidYMid meet">
<metadata>
Created by potrace 1.11, written by Peter Selinger 2001-2013
</metadata>
<g transform="translate(0.000000,16.000000) scale(0.003200,-0.003200)"
fill="#000000" stroke="none">
<path d="M383 4986 c-181 -44 -334 -202 -372 -384 -16 -75 -16 -4129 0 -4204
39 -187 200 -348 387 -387 75 -16 4129 -16 4204 0 187 39 348 200 387 387 16
75 16 4129 0 4204 -39 187 -200 348 -387 387 -81 17 -4148 14 -4219 -3z m2400
-761 c319 -42 559 -156 767 -365 177 -178 271 -362 305 -602 l7 -48 -259 0
-259 0 -18 70 c-60 236 -242 410 -502 482 -66 18 -107 21 -249 22 -147 1 -181
-2 -253 -22 -446 -121 -692 -519 -692 -1115 0 -615 261 -1016 733 -1124 111
-26 357 -23 462 6 351 95 553 355 590 759 l6 72 -410 0 -411 0 0 205 0 205
650 0 650 0 0 -815 0 -815 -172 2 -171 3 -23 100 c-12 55 -30 135 -39 178
l-17 77 -77 -78 c-174 -178 -363 -282 -600 -329 -121 -24 -421 -24 -551 0
-476 88 -850 395 -1030 845 -82 205 -130 462 -130 700 0 778 422 1383 1081
1552 188 49 415 61 612 35z"/>
</g>
</svg>
